<svg id="Layer_1" enable-background="new 0 0 512 512" height="512" viewBox="0 0 512 512" width="512" xmlns="http://www.w3.org/2000/svg"><g><path d="m173.544 241.891c7.667 5.921 11.555 13.835 11.555 23.521 0 .529-.002 1.059-.002 1.588h141.803v-1.588c0-9.686 3.888-17.599 11.555-23.521 33.393-25.789 52.545-64.75 52.545-106.891 0-74.439-60.561-135-135-135s-135 60.561-135 135c0 42.141 19.151 81.101 52.544 106.891z" fill="#fff36c"/><path d="m256.003 0v267h70.897v-1.588c0-9.686 3.888-17.599 11.555-23.521 33.393-25.789 52.545-64.75 52.545-106.891 0-74.438-60.559-134.998-134.997-135z" fill="#ffde46"/><path d="m324.235 122.007c-2.393-5.451-7.782-8.972-13.735-8.972h-109c-5.953 0-11.343 3.521-13.735 8.972-2.393 5.452-1.335 11.802 2.695 16.183l50.54 54.945v73.901c0 8.284 6.716 15 15 15s15-6.716 15-15v-73.901l50.54-54.944c4.03-4.382 5.088-10.732 2.695-16.184zm-68.235 43.121-20.322-22.093h40.644z" fill="#fdbf00"/><path d="m324.235 122.007c-2.393-5.451-7.782-8.972-13.735-8.972h-54.497v30h20.319l-20.319 22.09v116.91c8.283-.002 14.997-6.717 14.997-15v-73.901l50.54-54.944c4.03-4.381 5.088-10.731 2.695-16.183z" fill="#ff8856"/><path d="m184.661 260c.289 1.737.438 3.541.438 5.412 0 8.167-.012 16.334-.028 24.507-.031 16.281 6.031 30.978 17.532 42.501 11.501 11.524 26.187 17.615 42.468 17.615h21.83c33.084 0 60-26.916 60-60v-24.624c0-1.871.149-3.674.438-5.412h-142.678z" fill="#4793ff"/><path d="m256.003 260v90.036h10.898c33.084 0 60-26.916 60-60v-24.624c0-1.871.149-3.674.438-5.412z" fill="#525cdd"/><g><path d="m497 511.998h-.001l-180.999-.024-60-22.488-60 22.473-181.002-.024c-8.284-.001-14.998-6.717-14.998-15v-38.396c0-76.266 62.155-138.313 138.553-138.313h57.447l60 58.42 60-58.42h57.447c76.398 0 138.553 62.047 138.553 138.313v38.459c0 3.979-1.581 7.794-4.394 10.607-2.813 2.812-6.628 4.393-10.606 4.393z" fill="#00607f"/></g><path d="m373.447 320.226h-57.447l-59.997 58.417v110.844l59.997 22.487 180.998.024h.001c3.978 0 7.793-1.58 10.606-4.393s4.394-6.629 4.394-10.607v-38.459c.001-76.266-62.154-138.313-138.552-138.313z" fill="#002c3c"/><path d="m232.541 508.713c4.057-3.246 6.146-8.36 5.521-13.518l-20-165c-.482-3.978-2.531-7.542-5.609-9.969h-18.746l-86.486 54.051c-4.483 2.802-7.16 7.756-7.047 13.042s3 10.121 7.599 12.728l29.25 16.582-23.553 22.036c-5.319 4.977-6.294 13.056-2.311 19.155l35.351 54.132 81.969.011z" fill="#007a9f"/><path d="m279.459 508.713c-4.057-3.246-6.146-8.36-5.521-13.518l20-165c.482-3.978 2.531-7.542 5.609-9.969h18.746l86.486 54.051c4.483 2.802 7.16 7.756 7.047 13.042s-3 10.121-7.599 12.728l-29.25 16.582 23.553 22.036c5.319 4.977 6.294 13.056 2.311 19.155l-35.351 54.132-81.969.011z" fill="#00607f"/><g clip-rule="evenodd" fill-rule="evenodd"><path d="m196 320.226h120v191.774h-120z" fill="#fff4f4"/><path d="m256.003 320.226h59.997v191.774h-59.997z" fill="#f6efea"/></g></g></svg>