<?xml version="1.0"?>
<svg xmlns="http://www.w3.org/2000/svg" id="Capa_1" enable-background="new 0 0 512 512" height="512px" viewBox="0 0 512 512" width="512px" class=""><g><g><g><g><circle cx="206.3" cy="189.733" fill="#a0c8ff" r="182.233" data-original="#A0C8FF"/><path d="m206.3 7.5c-3.864 0-7.696.135-11.5.372 95.285 5.936 170.733 85.081 170.733 181.862s-75.448 175.926-170.733 181.861c3.804.237 7.636.371 11.5.371 100.645 0 182.233-81.589 182.233-182.233s-81.588-182.233-182.233-182.233z" fill="#91b2fa" data-original="#91B2FA"/></g><g><ellipse cx="371.967" cy="388.533" fill="#89dd8e" rx="115.967" ry="115.967" transform="matrix(.707 -.707 .707 .707 -165.788 376.819)" data-original="#89DD8E" class=""/><ellipse cx="371.967" cy="388.533" fill="#f9f5f3" rx="82.833" ry="82.833" transform="matrix(.707 -.707 .707 .707 -165.788 376.819)" data-original="#F9F5F3"/><path d="m371.967 272.567c-3.881 0-7.717.195-11.5.567 58.648 5.774 104.467 55.234 104.467 115.4 0 60.165-45.819 109.626-104.467 115.4 3.783.372 7.619.567 11.5.567 64.047 0 115.967-51.92 115.967-115.967s-51.92-115.967-115.967-115.967z" fill="#79d191" data-original="#79D191"/><path d="m371.967 305.7c-3.904 0-7.739.29-11.5.813 40.301 5.601 71.333 40.177 71.333 82.021 0 41.843-31.032 76.42-71.333 82.021 3.761.523 7.596.813 11.5.813 45.747 0 82.833-37.086 82.833-82.833 0-45.749-37.086-82.835-82.833-82.835z" fill="#f9eae0" data-original="#F9EAE0"/></g></g><g><path d="m338.834 396.033c13.27 0 24.066-10.796 24.066-24.066 0-13.271-10.796-24.067-24.066-24.067s-24.067 10.796-24.067 24.067c0 4.142 3.358 7.5 7.5 7.5s7.5-3.358 7.5-7.5c0-5 4.067-9.067 9.067-9.067 4.999 0 9.066 4.067 9.066 9.067 0 4.999-4.067 9.066-9.066 9.066-13.27 0-24.067 10.796-24.067 24.067v16.566c0 4.142 3.358 7.5 7.5 7.5h33.133c4.142 0 7.5-3.358 7.5-7.5s-3.358-7.5-7.5-7.5h-25.633v-9.066c0-4.999 4.067-9.067 9.067-9.067z" data-original="#000000" class="active-path" style="fill:#04458F" data-old_color="#000000"/><path d="m414.167 355.4v25.633h-18.133v-25.633c0-4.142-3.358-7.5-7.5-7.5s-7.5 3.358-7.5 7.5v33.133c0 4.142 3.358 7.5 7.5 7.5h25.633v25.633c0 4.142 3.358 7.5 7.5 7.5s7.5-3.358 7.5-7.5v-66.266c0-4.142-3.358-7.5-7.5-7.5s-7.5 3.358-7.5 7.5z" data-original="#000000" class="active-path" style="fill:#04458F" data-old_color="#000000"/><path d="m371.967 298.2c-49.81 0-90.333 40.523-90.333 90.333s40.523 90.333 90.333 90.333 90.333-40.523 90.333-90.333c0-49.809-40.523-90.333-90.333-90.333zm0 165.667c-41.539 0-75.333-33.794-75.333-75.334 0-41.539 33.794-75.333 75.333-75.333s75.333 33.794 75.333 75.333-33.794 75.334-75.333 75.334z" data-original="#000000" class="active-path" style="fill:#04458F" data-old_color="#000000"/><path d="m380.362 265.358c10.401-23.832 15.671-49.216 15.671-75.625 0-48.093-17.996-92.056-47.596-125.532-.436-.681-.964-1.271-1.562-1.76-34.739-38.328-84.893-62.441-140.575-62.441-70.381 0-134.628 38.646-167.67 100.856-1.943 3.658-.553 8.199 3.106 10.142 3.659 1.944 8.199.553 10.142-3.106 5.786-10.893 12.616-20.996 20.32-30.225 14.197 7.295 30.52 13.327 48.251 17.929-7.686 26.202-12.051 55.776-12.661 86.637h-76.06c.697-16.515 3.693-32.733 8.939-48.309 1.322-3.926-.789-8.18-4.714-9.502-3.926-1.32-8.18.788-9.502 4.714-6.559 19.474-9.884 39.861-9.884 60.597 0 48.117 18.014 92.099 47.64 125.581.419.641.917 1.201 1.482 1.669 34.741 38.353 84.91 62.483 140.612 62.483 14.547 0 28.959-1.651 42.995-4.902-.519 4.587-.795 9.246-.795 13.969-.001 68.08 55.386 123.467 123.466 123.467 39.759 0 77.323-19.331 100.484-51.709 2.41-3.369 1.632-8.053-1.737-10.463-3.369-2.411-8.054-1.632-10.463 1.737-20.351 28.45-53.355 45.435-88.284 45.435-59.809 0-108.467-48.658-108.467-108.467s48.658-108.466 108.467-108.466 108.466 48.658 108.466 108.466c0 13.08-2.301 25.863-6.838 37.995-1.451 3.879.518 8.201 4.398 9.652 3.881 1.451 8.201-.518 9.652-4.397 5.168-13.818 7.789-28.369 7.789-43.25-.001-65.257-50.893-118.844-115.072-123.175zm-78.083 21.313c-3.32-.999-6.693-1.943-10.117-2.833 7.68-26.193 12.042-55.756 12.651-86.605h76.046c-.987 23.833-6.684 46.692-16.995 68.106-22.745 1.481-43.829 9.146-61.585 21.332zm-270.541-89.438h76.049c.61 30.861 4.975 60.436 12.661 86.638-17.687 4.591-33.973 10.604-48.144 17.874-23.914-28.558-38.882-64.843-40.566-104.512zm349.124-15h-76.048c-.61-30.861-4.975-60.436-12.661-86.637 17.687-4.591 33.973-10.604 48.144-17.875 23.913 28.56 38.881 64.844 40.565 104.512zm-93.342-100.905c-3.004-8.389-6.373-16.355-10.097-23.807-7.459-14.921-16.005-27.139-25.335-36.422 29.793 8.098 56.452 23.888 77.685 45.113-12.58 6.088-26.838 11.169-42.253 15.116zm-14.731 3.353c-18.621 3.743-38.558 5.921-58.989 6.351v-75.3c18.606 3.594 36.205 20.491 50.205 48.497 3.211 6.422 6.141 13.262 8.784 20.452zm-73.989-68.95v75.3c-20.431-.43-40.368-2.608-58.989-6.351 2.644-7.191 5.574-14.03 8.784-20.452 14-28.006 31.599-44.902 50.205-48.497zm15 90.303c22.049-.448 43.61-2.86 63.735-7.031 7.435 25.016 11.667 53.447 12.277 83.231h-76.012zm76.012 91.199c-.609 29.769-4.837 58.186-12.266 83.193-20.185-4.178-41.736-6.554-63.746-6.995v-76.198zm-91.012 76.202c-22.048.448-43.609 2.86-63.734 7.031-7.435-25.016-11.668-53.448-12.277-83.232h76.011zm0 15.002v75.299c-18.606-3.594-36.205-20.491-50.205-48.497-3.21-6.422-6.14-13.261-8.784-20.451 18.621-3.744 38.558-5.922 58.989-6.351zm-73.719 9.703c3.004 8.389 6.372 16.354 10.097 23.805 7.459 14.921 16.006 27.139 25.335 36.422-29.793-8.098-56.452-23.888-77.685-45.112 12.58-6.087 26.838-11.168 42.253-15.115zm88.719 65.595v-75.299c20.375.424 40.303 2.569 58.998 6.326-2.646 7.199-5.579 14.046-8.792 20.476-14.001 28.006-31.6 44.903-50.206 48.497zm73.722-65.604c.117.03.235.06.352.091-.194.181-.389.359-.581.541.076-.211.154-.42.229-.632zm-204.798-231.97c21.533-21.554 48.342-37.106 77.802-45.076-9.335 9.285-17.886 21.508-25.348 36.436-3.725 7.451-7.093 15.417-10.097 23.806-15.458-3.958-29.751-9.055-42.357-15.166zm52.341 32.841c20.125 4.172 41.687 6.583 63.735 7.031v76.2h-76.011c.609-29.784 4.841-58.215 12.276-83.231zm116.978 259.411c.08-.08.16-.164.24-.244-.016.064-.031.128-.047.192-.064.017-.129.034-.193.052z" data-original="#000000" class="active-path" style="fill:#04458F" data-old_color="#000000"/></g></g></g> </svg>
