<svg height="512" viewBox="0 0 64 64" width="512" xmlns="http://www.w3.org/2000/svg"><g id="Laptop-Man-Online_education-Learning-Communication" data-name="Laptop-Man-Online education-Learning-Communication"><rect fill="#46f8ff" height="26" rx="2" width="44" x="10" y="19"/><path d="m58.76 61h-53.52a1.994 1.994 0 0 1 -1.79-2.89l6-12a2 2 0 0 1 1.79-1.11h41.52a2 2 0 0 1 1.79 1.11l6 12a1.994 1.994 0 0 1 -1.79 2.89z" fill="#c6c5ca"/><path d="m54 21v22a2.006 2.006 0 0 1 -2 2h-4a2.006 2.006 0 0 0 2-2v-22a2.006 2.006 0 0 0 -2-2h4a2.006 2.006 0 0 1 2 2z" fill="#00e7f0"/><path d="m58.76 61h-4a1.994 1.994 0 0 0 1.79-2.89l-6-12a2 2 0 0 0 -1.79-1.11h4a2 2 0 0 1 1.79 1.11l6 12a1.994 1.994 0 0 1 -1.79 2.89z" fill="#acabb1"/><path d="m47 33.32v11.68h-15v-12l8-4 5.79 2.48a2.014 2.014 0 0 1 1.21 1.84z" fill="#ff3051"/><path d="m47 33.32v11.68h-4v-11.68a2.014 2.014 0 0 0 -1.21-1.84l-3.64-1.56 1.85-.92 5.79 2.48a2.014 2.014 0 0 1 1.21 1.84z" fill="#cd2a00"/><path d="m44 8-6 2.5-6 2.5-6-2.5-6-2.5 12-5z" fill="#ff3051"/><path d="m44 8-12 5-2-.83 4-1.67 6-2.5-10-4.17 2-.83z" fill="#cd2a00"/><path d="m38 19v2a6 6 0 0 1 -12 0v-5.13a16.494 16.494 0 0 0 12 0z" fill="#ffc477"/><path d="m38 15.87v5.13a6 6 0 0 1 -6 6 5.8 5.8 0 0 1 -2-.35 5.981 5.981 0 0 0 4-5.65v-4.12a14.485 14.485 0 0 0 4-1.01z" fill="#ffa733"/><path d="m38 10.5v5.37a16.494 16.494 0 0 1 -12 0v-5.37l6 2.5z" fill="#cd2a00"/><path d="m38 10.5v5.37a15.725 15.725 0 0 1 -6 1.13 16.4 16.4 0 0 1 -2-.12 14.485 14.485 0 0 0 4-1.01v-3.7z" fill="#ab2300"/><path d="m32 33v12h-15v-11.68a2.014 2.014 0 0 1 1.21-1.84l5.79-2.48z" fill="#ff3051"/><path d="m45 12.28v-4.28a.987.987 0 0 0 -.62-.92l-12-5a.916.916 0 0 0 -.76 0l-12 5a.993.993 0 0 0 0 1.84l5.38 2.25v9.83a7 7 0 0 0 14 0v-9.83l4-1.67v2.78a2 2 0 1 0 2 0zm-8 8.72a5 5 0 0 1 -10 0v-3.72a17.721 17.721 0 0 0 10 0zm0-5.84a15.978 15.978 0 0 1 -10 0v-3.16l4.62 1.92a.942.942 0 0 0 .76 0l4.62-1.92zm-5-6.16h7l-7 2.92-9.4-3.92 9.4-3.92 7 2.92h-7a1 1 0 0 0 0 2z"/><path d="m61.45 57.66-6-12a3.093 3.093 0 0 0 -.91-1.08 2.951 2.951 0 0 0 .46-1.58v-22a3.009 3.009 0 0 0 -3-3h-10a1 1 0 0 0 0 2h10a1 1 0 0 1 1 1v22a1 1 0 0 1 -1 1h-4v-10.68a2.991 2.991 0 0 0 -1.82-2.76l-5.79-2.48a.955.955 0 0 0 -.84.03l-7.55 3.77-7.55-3.77a.989.989 0 0 0 -.84-.03l-5.79 2.48a2.991 2.991 0 0 0 -1.82 2.76v10.68h-4a1 1 0 0 1 -1-1v-22a1 1 0 0 1 1-1h10a1 1 0 0 0 0-2h-10a3.009 3.009 0 0 0 -3 3v22a2.951 2.951 0 0 0 .46 1.58 3.093 3.093 0 0 0 -.91 1.08l-6 12a3 3 0 0 0 2.69 4.34h53.52a3 3 0 0 0 2.69-4.34zm-28.45-24.04 7.03-3.52 5.36 2.3a1 1 0 0 1 .61.92v10.68h-13zm-15-.3a1 1 0 0 1 .61-.92l5.36-2.3 7.03 3.52v10.38h-13zm41.61 26.21a.966.966 0 0 1 -.85.47h-53.52a.966.966 0 0 1 -.85-.47 1.008 1.008 0 0 1 -.05-.98l6-12a.992.992 0 0 1 .9-.55h41.52a.992.992 0 0 1 .9.55l6 12a1.008 1.008 0 0 1 -.05.98z"/><path d="m39 56h-14a1 1 0 0 0 0 2h14a1 1 0 0 0 0-2z"/><path d="m3 4h2a1 1 0 0 0 0-2h-2a1 1 0 0 0 0 2z"/><path d="m9 4h6a1 1 0 0 0 0-2h-6a1 1 0 0 0 0 2z"/><path d="m3 8h2a1 1 0 0 0 0-2h-2a1 1 0 0 0 0 2z"/><path d="m9 8h6a1 1 0 0 0 0-2h-6a1 1 0 0 0 0 2z"/><path d="m3 12h2a1 1 0 0 0 0-2h-2a1 1 0 0 0 0 2z"/><path d="m9 12h6a1 1 0 0 0 0-2h-6a1 1 0 0 0 0 2z"/><path d="m3 16h2a1 1 0 0 0 0-2h-2a1 1 0 0 0 0 2z"/><path d="m9 16h6a1 1 0 0 0 0-2h-6a1 1 0 0 0 0 2z"/><path d="m49 4h2a1 1 0 0 0 0-2h-2a1 1 0 0 0 0 2z"/><path d="m55 4h6a1 1 0 0 0 0-2h-6a1 1 0 0 0 0 2z"/><path d="m49 8h2a1 1 0 0 0 0-2h-2a1 1 0 0 0 0 2z"/><path d="m61 6h-6a1 1 0 0 0 0 2h6a1 1 0 0 0 0-2z"/><path d="m49 12h2a1 1 0 0 0 0-2h-2a1 1 0 0 0 0 2z"/><path d="m61 10h-6a1 1 0 0 0 0 2h6a1 1 0 0 0 0-2z"/><path d="m49 16h2a1 1 0 0 0 0-2h-2a1 1 0 0 0 0 2z"/><path d="m61 14h-6a1 1 0 0 0 0 2h6a1 1 0 0 0 0-2z"/></g></svg>